<svg width="22" height="19" viewBox="0 0 22 19" fill="none" xmlns="http://www.w3.org/2000/svg">
<g clip-path="url(#clip0_809_704)">
<rect width="20.9655" height="19" transform="translate(0.344727)" fill="white"/>
<path d="M21.0118 12.3625C21.6632 10.5139 21.1272 8.41565 20.5576 6.96173C20.5539 6.90548 20.5347 6.85096 20.5018 6.80318C20.3082 6.33091 20.1296 5.94298 19.977 5.66299C20.2579 5.56162 20.4432 5.31629 20.446 5.04229V2.23229C20.446 1.85966 20.1127 1.55762 19.7015 1.55762H10.5558C10.3502 1.55728 10.1832 1.70803 10.1829 1.89436C10.1829 1.90132 10.1831 1.90828 10.1835 1.91519C10.3101 3.93921 10.1463 5.31216 9.67357 6.28031C9.66417 6.28993 9.65547 6.30009 9.64751 6.31067C9.64611 6.3275 9.64611 6.34445 9.64751 6.36127C9.46707 6.71371 9.22302 7.03633 8.92538 7.31593L8.89188 7.33617C8.89188 7.33617 8.89188 7.33617 8.89188 7.35979C8.45548 7.73697 7.95218 8.04487 7.40295 8.27059C6.44603 8.65537 5.46399 8.98659 4.46231 9.26236L4.27248 9.31971C0.792103 10.3654 0.33798 12.2613 0.345424 13.2126C0.344494 13.2261 0.344494 13.2395 0.345424 13.253V15.6616C0.345983 15.7788 0.41359 15.8874 0.524096 15.9483C1.37707 16.4187 2.29778 16.7797 3.26 17.0211C3.45789 17.0715 3.66346 16.967 3.71911 16.7876C3.72957 16.7539 3.73418 16.7188 3.73274 16.6837V16.6062H4.27992V16.9435C4.27755 17.1106 4.41057 17.2541 4.59259 17.2808C4.91644 17.3281 5.24028 17.3652 5.55668 17.3888C5.66034 17.3967 5.76294 17.3649 5.83957 17.3011C5.91616 17.2367 5.95939 17.1461 5.95869 17.0514V16.6264H6.50587V17.1054C6.50587 17.2917 6.67254 17.4427 6.8781 17.4427C7.19078 17.4427 7.50345 17.4427 7.83846 17.4023C8.03235 17.3882 8.18152 17.2412 8.18091 17.0649V16.6264H8.7281V16.9232C8.72544 17.1095 8.88992 17.2625 9.09549 17.2649C9.11703 17.2652 9.13857 17.2637 9.15989 17.2606C9.84316 17.1657 10.5167 17.0202 11.1737 16.8254L11.2332 16.8018C13.8388 15.4525 15.4916 16.5623 15.5586 16.6095C15.6235 16.6552 15.7034 16.6801 15.7856 16.6804H16.2472C16.4528 16.6804 16.6194 16.5293 16.6194 16.343V15.7729H17.1517V16.3363C17.1517 16.5226 17.3184 16.6736 17.5239 16.6736H18.7225C18.9281 16.6736 19.0948 16.5226 19.0948 16.3363V15.7729H19.6457V16.3363C19.6457 16.5226 19.8123 16.6736 20.0179 16.6736H20.9373C21.1429 16.6736 21.3095 16.5226 21.3095 16.3363V12.6998C21.3132 12.537 21.1879 12.395 21.0118 12.3625ZM12.1787 2.23904H12.4839H19.6829V5.03217H12.1787V2.23904ZM7.49973 8.96551L7.50345 8.98574C7.80859 9.21024 8.09018 9.45983 8.3447 9.73126C8.27718 9.833 8.24238 9.94985 8.24419 10.0686C8.24163 10.4244 8.55789 10.7148 8.9505 10.7171C9.34316 10.7194 9.66352 10.4328 9.66607 10.077C9.66849 9.74176 9.38685 9.46088 9.01844 9.43103C8.783 9.14012 8.51476 8.87215 8.21814 8.63154C8.55077 8.45997 8.86373 8.25883 9.15244 8.03109C9.51346 8.33802 9.84935 8.66835 10.1575 9.01948C10.028 9.35542 10.2235 9.72287 10.5941 9.84026C10.9648 9.95761 11.3703 9.78042 11.4998 9.44452C11.6293 9.10858 11.4338 8.74113 11.0632 8.62374C10.9862 8.59937 10.9053 8.58718 10.8238 8.58769H10.7344C10.4079 8.21519 10.0522 7.86457 9.66984 7.53858C9.84726 7.3406 10.0042 7.12833 10.1389 6.90438C10.7151 7.17624 11.2721 7.48043 11.8065 7.81519C11.8028 8.17475 12.1215 8.4689 12.5182 8.47224C12.915 8.47557 13.2396 8.18677 13.2432 7.82721C13.2469 7.46765 12.9282 7.17349 12.5315 7.17016C12.4182 7.16919 12.3062 7.19255 12.2047 7.23835C11.6423 6.89325 11.0567 6.58008 10.4515 6.30055C10.8573 5.32228 11.0322 4.02354 10.9503 2.25253H11.4379V5.04567C11.4379 5.4183 11.7712 5.72034 12.1824 5.72034H19.158C19.2548 5.89913 19.4186 6.20947 19.5973 6.61428H19.4447C17.1834 6.62908 15.3635 8.30235 15.3798 10.3517C15.3891 11.5162 16.001 12.6092 17.0326 13.3036C14.0212 14.0222 9.49117 14.8756 5.67951 14.653C6.38303 12.1061 5.54179 10.5375 4.99461 9.84932C5.84669 9.59603 6.68296 9.30099 7.49973 8.96551ZM4.24642 10.0416C4.64843 10.47 5.69812 11.9104 4.9276 14.5585C3.58636 14.463 2.28368 14.1063 1.1085 13.5128C1.09515 13.4357 1.08645 13.358 1.08244 13.28V13.2564C1.05267 12.5379 1.35045 10.9828 4.24642 10.0416ZM20.3901 15.9989V15.4356C20.3901 15.2493 20.2235 15.0983 20.0179 15.0983H18.7263C18.5207 15.0983 18.354 15.2493 18.354 15.4356V15.9989H17.8962V15.4356C17.8962 15.2493 17.7295 15.0983 17.5239 15.0983H16.2397C16.0342 15.0983 15.8675 15.2493 15.8675 15.4356V15.9855C15.3613 15.6987 13.5113 14.8655 10.887 16.1946C10.4202 16.3343 9.94399 16.4469 9.46139 16.5319V16.2992C9.46139 16.1129 9.29473 15.9618 9.08916 15.9618H7.80496C7.59939 15.9618 7.43273 16.1129 7.43273 16.2992V16.7613H7.24289V16.2891C7.24289 16.1028 7.07622 15.9517 6.87066 15.9517H5.57901C5.37345 15.9517 5.20678 16.1028 5.20678 16.2891V16.6905L5.01694 16.6669V16.2891C5.01694 16.1028 4.85027 15.9517 4.64471 15.9517H3.35306C3.16373 15.9505 3.00354 16.0782 2.98083 16.2486C2.32016 16.0514 1.68397 15.7925 1.08244 15.4761V14.2684C2.70538 15.0477 4.80477 15.3411 7.03816 15.3411C12.9715 15.3411 19.7611 13.2834 20.5614 13.0371L20.5651 15.9989H20.3901ZM20.2077 12.4401C19.8913 12.5345 19.1134 12.7774 18.0376 13.0371C16.3722 12.3067 15.6755 10.491 16.4816 8.98174C17.0329 7.94932 18.1792 7.28663 19.4447 7.26871C19.5914 7.26685 19.7381 7.2736 19.8839 7.28895L19.8876 7.29907C20.4348 8.72937 20.9261 10.7702 20.2077 12.4401Z" fill="#2D383F"/>
<path d="M13.6125 2.64697C13.0143 2.64697 12.5293 3.08648 12.5293 3.62862C12.5313 4.17 13.0151 4.60841 13.6125 4.61027C14.2107 4.61027 14.6957 4.17076 14.6957 3.62862C14.6957 3.08648 14.2108 2.64697 13.6125 2.64697ZM13.6125 3.93559C13.4254 3.93559 13.2738 3.79817 13.2738 3.62862C13.2738 3.45907 13.4254 3.32164 13.6125 3.32164C13.7996 3.32164 13.9512 3.45907 13.9512 3.62862C13.9512 3.79817 13.7996 3.93559 13.6125 3.93559Z" fill="#2D383F"/>
</g>
<defs>
<clipPath id="clip0_809_704">
<rect width="20.9655" height="19" fill="white" transform="translate(0.344727)"/>
</clipPath>
</defs>
</svg>
