<svg width="22" height="19" viewBox="0 0 22 19" fill="none" xmlns="http://www.w3.org/2000/svg"><rect width="20.9655" height="19" transform="translate(0.344727)" fill="white"/><path d="M20.6142 16.933V5.09294C20.6241 4.89874 20.4585 4.73402 20.2442 4.725C20.1985 4.72306 20.1529 4.72848 20.1093 4.74097V4.75857L18.3616 5.25484C18.5445 4.81092 18.6532 4.34466 18.6839 3.87162C18.6839 1.73338 16.7712 0 14.4118 0C12.0524 0 10.1397 1.73338 10.1397 3.87162C10.167 4.32253 10.2677 4.76732 10.4387 5.19149L7.54921 4.25526C7.51566 4.25152 7.48178 4.25152 7.44823 4.25526H7.41716C7.3706 4.25601 7.32453 4.26437 7.28123 4.2799L1.2886 6.39169C1.15039 6.43933 1.05402 6.55394 1.04004 6.68734V12.3469V18.5415C1.04067 18.7359 1.21505 18.893 1.42958 18.8924C1.47701 18.8923 1.524 18.8843 1.56823 18.8688L7.42493 16.8134L14.105 18.9815C14.1856 19.0062 14.2729 19.0062 14.3535 18.9815L20.3423 17.285C20.5106 17.2372 20.6222 17.0927 20.6142 16.933ZM14.4118 0.70393C16.3423 0.70393 17.9072 2.12213 17.9072 3.87162C17.9072 5.2478 15.6274 9.04902 14.4118 10.9109C13.1962 9.03494 10.9164 5.2302 10.9164 3.87162C10.9164 2.12213 12.4813 0.70393 14.4118 0.70393ZM19.8491 16.6902L14.6215 18.172V15.4865C14.6215 15.2921 14.4476 15.1345 14.2331 15.1345C14.0187 15.1345 13.8448 15.2921 13.8448 15.4865V18.1473L7.80942 16.1904V13.9378C7.80942 13.7434 7.63552 13.5859 7.42104 13.5859C7.20656 13.5859 7.03267 13.7434 7.03267 13.9378V16.1904L1.81679 18.0312V12.5898L3.73536 11.8859C3.94067 11.8295 4.0567 11.6331 3.99456 11.447C3.93242 11.2609 3.7156 11.1558 3.5103 11.2121C3.48884 11.218 3.46797 11.2256 3.44792 11.2347L1.81674 11.8295V6.93019L7.03262 5.09997V6.15587C7.03262 6.35024 7.20652 6.50783 7.421 6.50783C7.63548 6.50783 7.80937 6.35024 7.80937 6.15587V5.0859L10.7882 6.0538C11.7435 8.03224 12.8424 9.95115 14.0777 11.7979C14.189 11.9641 14.4278 12.0171 14.6112 11.9163C14.6646 11.8869 14.7094 11.8463 14.7419 11.7979C15.9711 9.96198 17.0661 8.0549 18.0198 6.089L19.8374 5.57161L19.849 11.3403L17.8799 11.7732C17.6655 11.7966 17.5124 11.9731 17.5382 12.1674C17.5639 12.3618 17.7587 12.5005 17.9732 12.4772C18.0041 12.4806 18.0354 12.4806 18.0664 12.4772L19.849 12.083V16.6902H19.8491Z" fill="#2D383F"/><path d="M14.3961 1.82666C13.1499 1.82666 12.1396 2.74221 12.1396 3.87158C12.1396 5.00095 13.1499 5.91649 14.3961 5.91649C15.6414 5.91456 16.6504 5.00015 16.6526 3.87158C16.6526 2.74221 15.6423 1.82666 14.3961 1.82666ZM14.3961 5.21256C13.5859 5.20297 12.934 4.60595 12.9319 3.87158H12.9164C12.9164 3.13095 13.5789 2.53059 14.3961 2.53059C15.2133 2.53059 15.8758 3.13095 15.8758 3.87158C15.8758 4.6122 15.2133 5.21256 14.3961 5.21256Z" fill="#2D383F"/><path d="M9.31584 10.6155V10.626L7.4361 9.8904C7.34042 9.85424 7.23274 9.85424 7.13705 9.8904L5.5486 10.4711C5.34912 10.544 5.25261 10.7497 5.33305 10.9305C5.41349 11.1112 5.6404 11.1987 5.83988 11.1258L7.27687 10.6014L9.00514 11.2631C9.05422 11.282 9.10713 11.2916 9.16049 11.2912C9.37497 11.2928 9.55027 11.1365 9.55202 10.9421C9.55328 10.8 9.46012 10.6712 9.31584 10.6155Z" fill="#2D383F"/><path d="M15.6661 12.6284C15.6083 12.4588 15.4201 12.3549 15.2273 12.3858L15.2312 12.3577L14.268 12.5689L12.6369 11.9283C12.4395 11.8506 12.21 11.9325 12.1242 12.1113C12.0384 12.2902 12.1288 12.4982 12.3262 12.5759L14.0738 13.2798C14.1229 13.2988 14.1758 13.3084 14.2292 13.308H14.3224L15.4098 13.0687C15.6148 13.0112 15.7295 12.8141 15.6661 12.6284Z" fill="#2D383F"/></svg>