<svg width="22" height="19" viewBox="0 0 22 19" fill="none" xmlns="http://www.w3.org/2000/svg"><g clip-path="url(#clip0_809_714)"><rect width="20.9655" height="19" transform="translate(0.344727)" fill="white"/><path d="M19.9813 18.3828L16.5928 11.2404L13.3923 4.4896C13.3057 4.30538 13.0707 4.21968 12.8674 4.29813C12.7724 4.33484 12.6967 4.40345 12.6562 4.4896L9.79971 10.4972L8.67953 12.8574L6.22314 7.71999C6.13653 7.53576 5.90154 7.45007 5.69831 7.52851C5.60325 7.56522 5.52753 7.63384 5.48703 7.71999L3.17866 12.5529L0.378218 18.3792C0.289854 18.5627 0.382369 18.7764 0.584851 18.8565C0.635759 18.8766 0.690718 18.8869 0.746277 18.8868H19.6133C19.8342 18.8866 20.0132 18.7241 20.013 18.5239C20.013 18.4754 20.0022 18.4274 19.9813 18.3828ZM13.0202 5.54465L15.6166 11.0156H14.7045L13.0562 9.366C12.9076 9.2178 12.6546 9.20688 12.4911 9.34157C12.4654 9.36269 12.4429 9.38676 12.4241 9.41313L11.808 10.276H10.7759L13.0202 5.54465ZM5.85509 8.76415L7.90741 13.0641H6.78723C6.65121 13.0643 6.52464 13.1271 6.45118 13.2309L6.05112 13.8073L5.01895 12.4876C4.94434 12.3901 4.82182 12.3319 4.6909 12.3317H4.15882L5.85509 8.76415ZM1.37438 18.1616L3.81076 13.0568H4.48287L5.73107 14.6702C5.80568 14.7677 5.9282 14.8259 6.05912 14.8261C6.19229 14.8235 6.31526 14.7609 6.38717 14.6593L7.00327 13.7964H8.25146L10.3358 18.1471L1.37438 18.1616ZM11.2119 18.1616L9.1156 13.7747L10.4318 11.0011H12.0321C12.1681 11.0009 12.2947 10.9381 12.3681 10.8344L12.8122 10.2144L14.2284 11.632C14.304 11.7079 14.4116 11.7514 14.5245 11.7516H15.9567L19.0012 18.1725L11.2119 18.1616Z" fill="#2D383F"/><path d="M6.72824 1.58214C6.35083 0.70108 5.25671 0.264153 4.28456 0.606226C3.56069 0.860877 3.08267 1.49118 3.07967 2.19486C3.07571 2.25767 3.07571 2.32058 3.07967 2.38339C2.13382 2.78148 1.7232 3.79909 2.16247 4.65626C2.46667 5.24982 3.11777 5.63417 3.83979 5.64641L3.85979 5.66091H6.66023C7.90308 5.67795 8.92579 4.77867 8.94459 3.65234C8.96335 2.52601 7.97109 1.59918 6.72824 1.58214ZM6.68424 4.94667H3.88379C3.285 5.00273 2.74946 4.60832 2.6876 4.06566C2.62574 3.523 3.06096 3.03767 3.65976 2.98161C3.87634 2.94205 4.01656 2.75089 3.97291 2.55456C3.96956 2.53956 3.96521 2.52474 3.9598 2.51029C3.92075 2.40886 3.9005 2.30227 3.8998 2.19486C3.89639 1.65021 4.38077 1.20621 4.98177 1.20309C5.5134 1.20032 5.96937 1.54611 6.06014 2.02083C6.09689 2.21145 6.29237 2.34229 6.50421 2.31813C6.56417 2.31455 6.62428 2.31455 6.68424 2.31813C7.48516 2.31813 8.13447 2.90656 8.13447 3.6324C8.13447 4.35824 7.48516 4.94667 6.68424 4.94667Z" fill="#2D383F"/><path d="M20.2173 2.00599C20.2212 1.94318 20.2212 1.88027 20.2173 1.81746C20.2132 0.872364 19.3645 0.10918 18.3217 0.112806C17.5508 0.115525 16.8603 0.542708 16.5754 1.19073C15.3388 1.21421 14.3536 2.13819 14.3723 3.26044C14.3911 4.38677 15.4138 5.28605 16.6567 5.26901H19.4571C20.4999 5.25133 21.3293 4.47102 21.3098 3.52606C21.2963 2.87173 20.8722 2.28167 20.2173 2.00599ZM20.5186 3.75977C20.4127 4.21007 19.9771 4.53401 19.4691 4.54027H16.6687C15.8678 4.54027 15.2185 3.95184 15.2185 3.226C15.2185 2.50016 15.8678 1.91173 16.6687 1.91173C16.7287 1.90814 16.7888 1.90814 16.8487 1.91173C17.0512 1.93076 17.2371 1.80908 17.2808 1.62893C17.3811 1.09194 17.9427 0.730286 18.5353 0.821152C19.1278 0.912018 19.5269 1.421 19.4266 1.95804C19.4164 2.01256 19.4012 2.06622 19.3811 2.11843C19.3105 2.30814 19.4229 2.51384 19.6323 2.57788C19.6483 2.58277 19.6646 2.58676 19.6812 2.58975C20.269 2.70323 20.6439 3.22708 20.5186 3.75977Z" fill="#2D383F"/></g><defs><clipPath id="clip0_809_714"><rect width="20.9655" height="19" fill="white" transform="translate(0.344727)"/></clipPath></defs></svg>