<svg width="22" height="23" viewBox="0 0 22 23" fill="none" xmlns="http://www.w3.org/2000/svg">
<g clip-path="url(#clip0_809_725)">
<rect width="20.9655" height="21.375" transform="translate(0.344727 0.875)" fill="white"/>
<path d="M20.9681 16.3361L16.8531 11.5365H18.8413C19.0734 11.5359 19.2611 11.3436 19.2606 11.1069C19.2604 11.0127 19.2297 10.9212 19.1733 10.8465L15.8695 6.4197H17.5508C17.783 6.41938 17.9709 6.22729 17.9706 5.99063C17.9705 5.88671 17.9333 5.78638 17.8661 5.70833L13.8225 1.0201C13.669 0.842573 13.4033 0.825592 13.2292 0.98217C13.216 0.994008 13.2036 1.0067 13.192 1.0201L9.14423 5.70404C8.9887 5.87974 9.00231 6.15074 9.17459 6.3093C9.25267 6.38114 9.35429 6.42051 9.45947 6.4197H11.1618L10.1446 7.77389L7.42087 4.61555C7.26734 4.43803 7.00169 4.42105 6.82757 4.57762C6.81438 4.58946 6.80198 4.60216 6.79037 4.61555L3.33105 8.6224C3.17784 8.80019 3.19502 9.07098 3.36941 9.22718C3.44596 9.29575 3.54437 9.33362 3.6463 9.33378H4.97875L2.21297 13.0235C2.076 13.2146 2.11682 13.4827 2.30423 13.6224C2.37422 13.6746 2.45834 13.7034 2.54503 13.7049H4.10026L0.682966 17.7117C0.532067 17.8916 0.552716 18.1621 0.72915 18.316C0.804179 18.3814 0.899489 18.4179 0.998214 18.4188H5.64707V21.4186C5.64707 21.8777 6.01218 22.25 6.46251 22.25H7.74452C8.19486 22.2523 8.56186 21.8821 8.56417 21.4229C8.56417 21.4215 8.56417 21.4201 8.56417 21.4186V18.4188H12.0529V21.4186C12.0529 21.8777 12.418 22.25 12.8684 22.25H14.1504C14.6007 22.25 14.9658 21.8777 14.9658 21.4186V17.0475H20.6529C20.885 17.0472 21.073 16.8551 21.0727 16.6184C21.0725 16.5145 21.0354 16.4142 20.9681 16.3361ZM7.72351 21.3929L6.48773 21.4186L6.46251 18.4188H7.72351V21.3929ZM12.0529 17.5618H1.92294L5.36125 13.5635C5.51688 13.3879 5.50337 13.1169 5.33114 12.9582C5.25086 12.8843 5.14572 12.8448 5.03759 12.8478H3.3983L6.16408 9.15808C6.30568 8.97054 6.27137 8.70147 6.08742 8.5571C6.01418 8.49963 5.92444 8.46834 5.83202 8.46813H4.57103L7.09301 5.5412L9.615 8.45956L7.8412 10.8508C7.6996 11.0384 7.73391 11.3074 7.91786 11.4518C7.9911 11.5093 8.08084 11.5405 8.17326 11.5408H10.1656L6.05059 16.3404C5.89738 16.5182 5.91456 16.789 6.08895 16.9452C6.1655 17.0138 6.26391 17.0516 6.36584 17.0518H12.0529V17.5618ZM14.1251 21.3843L12.8936 21.4186L12.8684 17.0475H14.1293L14.1251 21.3843ZM14.1504 16.1904H7.29057L11.4056 11.3908C11.5588 11.213 11.5416 10.9422 11.3672 10.786C11.2907 10.7174 11.1923 10.6796 11.0904 10.6794H9.02653L12.3471 6.24829C12.4864 6.05898 12.4488 5.79034 12.2631 5.64833C12.1915 5.59359 12.1046 5.56353 12.0151 5.56262H10.4052L13.5241 1.95431L16.6261 5.56262H15.0036C14.7715 5.56321 14.5838 5.75552 14.5843 5.99218C14.5845 6.08641 14.6152 6.1779 14.6716 6.25257L17.9712 10.6794H15.9242C15.692 10.6797 15.5041 10.8718 15.5044 11.1085C15.5045 11.2124 15.5417 11.3127 15.6089 11.3908L19.724 16.1904H14.1504Z" fill="#2D383F"/>
</g>
<defs>
<clipPath id="clip0_809_725">
<rect width="20.9655" height="21.375" fill="white" transform="translate(0.344727 0.875)"/>
</clipPath>
</defs>
</svg>
